<svg xmlns="http://www.w3.org/2000/svg" width="24.537" height="17.992" viewBox="0 0 24.537 17.992">
  <path id="Trazado_441" data-name="Trazado 441" d="M-187.206,1336.908a5.68,5.68,0,0,0-.974-2.54,3.433,3.433,0,0,0-2.457-1.083c-3.436-.257-8.585-.257-8.585-.257h-.011s-5.152,0-8.584.258a3.427,3.427,0,0,0-2.459,1.083,5.693,5.693,0,0,0-.974,2.54,40.094,40.094,0,0,0-.247,4.141v1.94a40.131,40.131,0,0,0,.247,4.143,5.689,5.689,0,0,0,.974,2.539,4.064,4.064,0,0,0,2.707,1.093c1.963.2,8.341.257,8.341.257s5.155-.01,8.591-.267a3.43,3.43,0,0,0,2.457-1.084,5.677,5.677,0,0,0,.974-2.539,40.11,40.11,0,0,0,.247-4.142v-1.94A40.127,40.127,0,0,0-187.206,1336.908Zm-7.927,4.854-6.627,3.581,0-5.512v-1.677l2.988,1.627Z" transform="translate(211.496 -1333.028)" fill="#870b40"/>
</svg>
