<?xml version="1.0" encoding="utf-8" standalone="no"?>
<!DOCTYPE svg PUBLIC "-//W3C//DTD SVG 20010904//EN" "http://www.w3.org/TR/2001/REC-SVG-20010904/DTD/svg10.dtd"[]>
<svg version="1.0" xmlns="http://www.w3.org/2000/svg" width="858.88" height="190.4" viewBox="68.32 40.8 858.88 190.4" preserveAspectRatio="xMidYMid meet">
  <metadata>
Created by potrace 1.16, written by Peter Selinger 2001-2019
</metadata>
  <g transform="translate(0.000000,272.000000) scale(0.100000,-0.100000)" fill="#000000" stroke="none">
    <path d="M1263 2209 c-139 -27 -243 -120 -293 -260 -11 -32 -72 -302 -135 -600 -102 -478 -116 -553 -112 -616 8 -134 73 -200 221 -223 139 -22 300 24 385 109 63 63 99 146 137 315 18 83 34 154 34 159 0 4 -63 7 -139 7 l-139 0 -16 -72 c-9 -40 -21 -98 -27 -128 -16 -79 -33 -107 -74 -120 -46 -15 -89 4 -93 42 -4 35 215 1067 231 1088 23 30 42 39 79 40 29 0 41 -6 54 -25 15 -23 14 -32 -10 -146 -38 -177 -50 -160 111 -157 l137 3 28 130 c38 173 41 273 9 339 -28 57 -88 99 -162 115 -57 13 -165 13 -226 0z" />
    <path d="M2033 2205 c-142 -40 -220 -112 -274 -256 -11 -27 -71 -294 -135 -592 -106 -496 -115 -549 -112 -625 4 -71 8 -88 34 -124 56 -80 186 -119 333 -98 177 25 295 128 345 300 8 30 65 289 126 574 119 560 127 623 91 701 -23 50 -64 89 -116 111 -55 24 -223 29 -292 9z m125 -267 c7 -7 12 -28 12 -47 0 -20 -49 -267 -110 -550 -89 -420 -113 -518 -131 -537 -50 -53 -129 -35 -129 29 0 25 175 874 215 1045 10 41 50 72 93 72 21 0 43 -5 50 -12z" />
    <path d="M6323 2205 c-150 -42 -241 -136 -287 -295 -41 -143 -236 -1099 -236 -1156 0 -148 69 -223 227 -245 223 -32 408 75 479 275 26 71 245 1118 247 1176 3 115 -41 192 -133 233 -60 27 -222 33 -297 12z m134 -285 c10 -22 -4 -101 -101 -558 -95 -445 -117 -537 -136 -557 -49 -53 -130 -36 -130 26 0 32 202 998 221 1056 14 45 45 64 94 61 31 -2 42 -8 52 -28z" />
    <path d="M7931 2205 c-121 -34 -205 -104 -257 -212 -14 -30 -39 -116 -56 -191 -55 -250 -34 -328 136 -501 109 -111 146 -169 146 -223 -1 -58 -47 -239 -67 -266 -46 -62 -133 -47 -133 23 0 30 30 193 46 248 5 16 -6 17 -135 17 -124 0 -140 -2 -145 -17 -3 -10 -17 -76 -32 -146 -35 -173 -32 -267 11 -328 57 -82 186 -120 334 -99 102 14 180 51 240 114 78 83 98 132 147 366 50 237 27 318 -133 473 -159 154 -170 183 -134 342 27 122 45 145 113 145 64 0 70 -28 38 -183 -10 -53 -22 -107 -26 -121 l-6 -26 140 0 140 0 7 27 c27 110 55 277 55 332 -1 106 -46 179 -135 217 -56 24 -223 29 -294 9z" />
    <path d="M2615 2189 c-2 -8 -81 -376 -175 -819 -94 -443 -173 -813 -176 -823 -6 -18 5 -19 238 -15 224 4 247 6 301 27 108 42 183 120 225 234 31 83 242 1090 242 1155 0 86 -17 132 -64 177 -62 60 -91 66 -353 72 -192 5 -234 3 -238 -8z m349 -278 c9 -8 16 -26 16 -40 0 -43 -207 -1007 -221 -1030 -18 -28 -52 -41 -111 -41 -47 0 -50 1 -45 23 3 12 56 258 117 547 61 289 113 533 116 544 5 16 14 18 59 14 30 -3 61 -10 69 -17z" />
    <path d="M3426 2183 c-10 -33 -346 -1624 -346 -1639 0 -12 50 -14 325 -14 179 0 325 2 325 5 0 3 11 57 25 121 14 64 25 122 25 130 0 12 -32 14 -186 14 -172 0 -185 1 -180 18 7 21 86 394 86 405 0 4 73 7 163 7 l162 0 23 113 c13 61 26 122 29 135 l5 22 -161 0 -161 0 5 23 c9 37 85 399 85 403 0 2 85 4 188 4 l188 0 23 113 c12 61 25 122 28 135 l5 22 -325 0 c-301 0 -326 -1 -331 -17z" />
    <path d="M4141 2153 c-22 -96 -341 -1604 -341 -1614 0 -5 58 -9 138 -9 l138 0 74 347 c40 192 76 352 80 356 8 9 16 -87 30 -408 6 -126 13 -245 16 -262 l5 -33 149 0 c86 0 150 4 150 9 0 5 -22 175 -50 377 -27 202 -50 370 -50 373 0 3 25 19 55 35 66 34 119 91 152 161 13 30 42 143 65 252 37 182 40 203 30 261 -20 119 -83 175 -220 193 -37 4 -144 8 -239 9 l-171 0 -11 -47z m317 -230 c43 -11 44 -42 11 -201 -43 -205 -57 -226 -143 -220 l-42 3 44 213 45 212 31 0 c17 0 41 -3 54 -7z" />
    <path d="M5280 2196 c0 -3 -77 -366 -171 -808 -94 -442 -173 -815 -176 -830 l-5 -28 139 0 140 0 32 148 c17 81 50 237 74 347 l42 200 78 3 c60 2 77 0 77 -11 0 -8 -31 -162 -70 -342 -38 -180 -70 -332 -70 -337 0 -4 63 -8 140 -8 77 0 140 4 140 8 0 5 79 379 175 832 96 453 175 825 175 827 0 2 -63 3 -139 3 l-140 0 -11 -52 c-6 -29 -39 -186 -73 -348 l-63 -295 -80 -3 -81 -3 73 343 c41 189 74 346 74 351 0 4 -63 7 -140 7 -77 0 -140 -2 -140 -4z" />
    <path d="M6896 2183 c-15 -48 -288 -1355 -293 -1399 -11 -108 34 -202 117 -244 58 -30 160 -42 244 -31 211 30 319 134 370 361 47 206 276 1296 276 1312 0 17 -9 18 -137 16 l-136 -3 -143 -675 c-79 -371 -150 -686 -158 -700 -32 -55 -128 -60 -141 -7 -4 13 55 312 138 700 79 373 141 679 139 682 -3 3 -65 5 -138 5 -118 0 -133 -2 -138 -17z" />
    <path d="M8517 2193 c-3 -5 -82 -372 -177 -818 -94 -445 -173 -818 -176 -828 -5 -16 13 -17 323 -15 l328 3 21 97 c12 54 25 114 28 133 l7 35 -186 0 c-102 0 -185 2 -185 5 0 5 74 356 85 403 5 22 8 22 165 22 142 0 159 2 164 18 3 9 15 62 26 117 11 55 23 108 26 118 5 16 -7 17 -155 17 -89 0 -161 3 -161 8 0 4 20 99 43 212 l44 205 186 3 c166 2 186 4 191 20 15 49 53 242 48 247 -8 8 -640 6 -645 -2z" />
  </g>
</svg>