<svg id="Grupo_765" data-name="Grupo 765" xmlns="http://www.w3.org/2000/svg" width="23.162" height="23.161" viewBox="0 0 23.162 23.161">
  <g id="Grupo_764" data-name="Grupo 764" transform="translate(0)">
    <path id="Trazado_439" data-name="Trazado 439" d="M-279.532,1315.683h-9.362a6.907,6.907,0,0,0-6.9,6.9v9.362a6.908,6.908,0,0,0,6.9,6.9h9.362a6.908,6.908,0,0,0,6.9-6.9v-9.362A6.907,6.907,0,0,0-279.532,1315.683Zm4.57,16.261a4.57,4.57,0,0,1-4.57,4.57h-9.362a4.569,4.569,0,0,1-4.57-4.57v-9.362a4.569,4.569,0,0,1,4.57-4.57h9.362a4.57,4.57,0,0,1,4.57,4.57v9.362Z" transform="translate(295.794 -1315.683)" fill="#4abced"/>
    <path id="Trazado_440" data-name="Trazado 440" d="M-283.05,1322.435a6,6,0,0,0-5.991,5.99,6,6,0,0,0,5.991,5.99,6,6,0,0,0,5.991-5.99A6,6,0,0,0-283.05,1322.435Zm0,9.65a3.66,3.66,0,0,1-3.661-3.66,3.661,3.661,0,0,1,3.661-3.66,3.66,3.66,0,0,1,3.66,3.66A3.66,3.66,0,0,1-283.05,1332.085Z" transform="translate(294.632 -1316.845)" fill="#4abced"/>
    <ellipse id="Elipse_32" data-name="Elipse 32" cx="1.435" cy="1.435" rx="1.435" ry="1.435" transform="translate(16.148 4.2)" fill="#4abced"/>
  </g>
</svg>
